<svg xmlns="http://www.w3.org/2000/svg" version="1.1" xmlns:xlink="http://www.w3.org/1999/xlink" xmlns:svgjs="http://svgjs.dev/svgjs" width="1000" height="623" viewBox="0 0 1000 623"><g transform="matrix(1,0,0,1,-0.6060606060606233,0.2522267206477409)"><svg viewBox="0 0 396 247" data-background-color="#ffffff" preserveAspectRatio="xMidYMid meet" height="623" width="1000" xmlns="http://www.w3.org/2000/svg" xmlns:xlink="http://www.w3.org/1999/xlink"><g id="tight-bounds" transform="matrix(1,0,0,1,0.2400000000000091,-0.09999999999999432)"><svg viewBox="0 0 395.52 247.2" height="247.2" width="395.52"><g><svg></svg></g><g><svg viewBox="0 0 395.52 247.2" height="247.2" width="395.52"><g transform="matrix(1,0,0,1,147.46753063885268,47.215199999999996)"><svg viewBox="0 0 100.58493872229465 152.7696" height="152.7696" width="100.58493872229465"><g><svg viewBox="0 0 100.58493872229465 152.7696" height="152.7696" width="100.58493872229465"><g><svg viewBox="0 0 100.58493872229465 152.7696" height="152.7696" width="100.58493872229465"><g><svg viewBox="0 0 100.58493872229465 152.7696" height="152.7696" width="100.58493872229465"><g><svg viewBox="0 0 100.58493872229465 152.7696" height="152.7696" width="100.58493872229465"><g><svg viewBox="0 0 100.58493872229465 152.7696" height="152.7696" width="100.58493872229465"><g transform="matrix(1,0,0,1,0,0)"><svg width="100.58493872229465" viewBox="1.2000000476837158 -37.75 25.25 38.349998474121094" height="152.7696" data-palette-color="#ed1703"><path d="M6.45 0.6Q6.15 0.6 5.95 0.23 5.75-0.15 5.75-0.6L5.75-0.6Q5.75-2.2 5.9-5.4L5.9-5.4 6-10.25Q6-10.95 5.85-12.3L5.85-12.3Q5.65-13.5 5.65-14.3L5.65-14.3Q5.65-15.15 5.35-16.65L5.35-16.65Q5.05-18.25 5.05-18.95L5.05-18.95Q5.05-19.55 4.55-21.8L4.55-21.8Q4.4-22.25 4.35-22.53 4.3-22.8 4.25-22.9L4.25-22.9Q4.05-24.3 3.6-26.35L3.6-26.35Q2.75-31 1.95-33.7L1.95-33.7Q1.2-36.1 1.2-36.95L1.2-36.95Q1.2-37.3 1.5-37.52 1.8-37.75 2.2-37.75L2.2-37.75 2.8-37.35Q2.95-35.1 4.15-29.33 5.35-23.55 5.95-22.7L5.95-22.7Q6.05-22.95 6.45-27.05L6.45-27.05Q6.8-30.7 7.45-34.3L7.45-34.3Q8.05-37.6 8.9-37.6L8.9-37.6Q9.15-37.6 9.3-37.58 9.45-37.55 9.55-37.45L9.55-37.45Q9.65-37.35 9.65-37.05L9.65-37.05Q9.65-36.6 9.45-36L9.45-36 9.25-35 7.95-27.55Q7.7-26.1 7.5-23.98 7.3-21.85 7.3-20.25L7.3-20.25Q7.3-19.8 7.35-19.45L7.35-19.45Q7.4-19.05 7.4-18.6L7.4-18.6 7.1-17.85 7.1-17.45 7.2-15.5 7.3-14.45Q7.45-12.45 7.45-11.45L7.45-11.45Q7.45-3.55 7.35-1.35L7.35-1.35 7.5-1.2Q7.5-1.1 7.55-1.05L7.55-1.05 7.55-0.85Q7.55-0.25 7.28 0.18 7 0.6 6.45 0.6L6.45 0.6ZM26.05 0.45Q25.3 0.45 25.1 0.28 24.9 0.1 24.8-0.65L24.8-0.65Q24.35-4.3 24.25-5.2L24.25-5.2 24-7.2Q22.9-7.45 21.5-7.45L21.5-7.45 19.7-7.55Q18.5-7.7 17.95-7.7L17.95-7.7Q17.65-7.7 17.6-7.45L17.6-7.45Q17.6-7.3 17.55-7.3L17.55-7.3 17.45-6.3Q17.4-5.4 16.9-2.7L16.9-2.7Q16.65-1.35 16.3-0.6L16.3-0.6Q15.9 0.25 15.55 0.25L15.55 0.25Q15.25 0.25 14.9-0.03 14.55-0.3 14.55-0.6L14.55-0.6 14.6-0.75 14.65-0.9Q15.55-4.45 16.15-7.95L16.15-7.95 16.75-11.05 17.35-14.85Q17.35-14.85 17.9-18.15L17.9-18.15Q18.15-19.5 18.8-22.5L18.8-22.5Q19.5-25.9 19.65-27.15L19.65-27.15Q19.7-27.3 19.85-29L19.85-29Q20.05-30.9 20.2-31.8L20.2-31.8Q20.35-33.1 20.5-33.3L20.5-33.3 20.85-33.3Q21-33.25 21.2-33.25L21.2-33.25Q21.8-33.25 22.1-33.55L22.1-33.55Q22.45-33.55 22.72-33.33 23-33.1 23-32.8L23-32.8Q23-30.4 23.35-27.3L23.35-27.3Q23.55-25.7 23.65-24.65L23.65-24.65Q24.2-18.2 26.45-0.45L26.45-0.45 26.45-0.3Q26.45 0.2 26.05 0.45L26.05 0.45ZM23.25-8.55L23.75-8.55Q23.25-15.75 21.85-29.8L21.85-29.8 19.15-16.45Q18-10.7 18-9.2L18-9.2Q18-8.95 19.9-8.75 21.8-8.55 23.25-8.55L23.25-8.55Z" opacity="1" transform="matrix(1,0,0,1,0,0)" fill="#ed1703" class="undefined-text-0" data-fill-palette-color="primary" id="text-0"></path></svg></g></svg></g></svg></g></svg></g></svg></g></svg></g></svg></g><g><path d="M0 123.6c0-68.262 55.338-123.6 123.6-123.6 30.402 0 58.24 10.976 79.768 29.183l-11.147 0c-19.26-14.022-42.974-22.294-68.621-22.295-25.647 0-49.361 8.272-68.621 22.295h-4.687l0 3.596c-26.474 21.396-43.404 54.131-43.404 90.821 0 36.69 16.93 69.426 43.404 90.821v3.596l4.687 0c19.26 14.022 42.974 22.294 68.621 22.295 25.647 0 49.361-8.272 68.621-22.295l11.147 0c-21.528 18.206-49.366 29.183-79.768 29.183-68.262 0-123.6-55.338-123.6-123.6z" fill="#ed1703" stroke="transparent" data-fill-palette-color="tertiary"></path></g></svg></g><defs></defs></svg><rect width="395.52" height="247.2" fill="none" stroke="none" visibility="hidden"></rect></g></svg></g></svg>